<?xml version="1.0" encoding="utf-8"?>
<!-- Generator: Adobe Illustrator 24.3.0, SVG Export Plug-In . SVG Version: 6.00 Build 0)  -->
<svg version="1.1" xmlns="http://www.w3.org/2000/svg" xmlns:xlink="http://www.w3.org/1999/xlink" x="0px" y="0px"
	 viewBox="0 0 500 500" style="enable-background:new 0 0 500 500;" xml:space="preserve">
<style type="text/css">
	.st0{fill:#80FFBF;}
	.st1{fill:#262626;}
</style>
<g id="BACKGROUND">
	<rect class="st0" width="500" height="500"/>
</g>
<g id="OBJECTS">
	<g>
		
			<ellipse transform="matrix(0.7071 -0.7071 0.7071 0.7071 -103.5687 249.6294)" class="st0" cx="249.54" cy="249.83" rx="247.17" ry="247.17"/>
		<ellipse class="st1" cx="249.54" cy="218.23" rx="96.15" ry="133.17"/>
		<path class="st1" d="M248.03,342.88c-80.48,0-152.43,19.29-200.28,49.59C92.51,455.69,166.18,497,249.54,497
			c82.77,0,155.99-40.73,200.85-103.2C402.56,362.73,329.69,342.88,248.03,342.88z"/>
		<path class="st1" d="M291.29,406.8h-83.5c-5.29,0-9.62-4.33-9.62-9.62V259.46c0-5.29,4.33-9.62,9.62-9.62h83.5
			c5.29,0,9.62,4.33,9.62,9.62v137.72C300.92,402.47,296.59,406.8,291.29,406.8z"/>
		<path class="st1" d="M168.58,225.79c2.88,21.35-1.86,39.86-10.59,41.35c-8.73,1.48-18.13-14.62-21.01-35.97
			c-2.88-21.35,1.86-39.86,10.59-41.35C156.29,188.34,165.7,204.44,168.58,225.79z"/>
		<path class="st1" d="M330.51,225.79c-2.88,21.35,1.86,39.86,10.59,41.35c8.73,1.48,18.13-14.62,21.01-35.97
			c2.88-21.35-1.86-39.86-10.59-41.35C342.8,188.34,333.39,204.44,330.51,225.79z"/>
		<path class="st1" d="M156.76,212.99c-3.23-21.32-6.47-42.64-9.7-63.95c-1.17-7.74-2.31-15.9,0.52-23.2
			c2.83-7.3,11.11-13.11,18.44-10.37c-2.94-14.83,13.47-25.78,27.77-30.7c23.96-8.25,49.64-12.45,74.77-9.2
			c25.13,3.25,49.66,14.36,66.6,33.2c5.36,5.96,9.98,12.74,12.53,20.34c4.92,14.63,1.79,30.59-1.38,45.69c-2.52,12-5.04,24-7.55,36
			c-0.57,2.74-1.22,5.62-3.09,7.7c-2.98,3.32-8.01,3.57-12.47,3.58c-47.68,0.1-95.35,0.21-143.03,0.31
			c-8.97,0.02-20.67-2.19-21.85-11.08"/>
	</g>
</g>
<g id="DESIGNED_BY_FREEPIK">
</g>
</svg>
